<svg xmlns="http://www.w3.org/2000/svg" width="613.228" height="645.654" viewBox="0 0 613.228 645.654">
  <g id="Group_2262" data-name="Group 2262" transform="translate(4484.711 6027.799)">
    <g id="icons" transform="translate(-4395.439 -5806.431) rotate(-19)" opacity="0.7">
      <path id="favorite" d="M12.9,2.6l2.3,5a1.057,1.057,0,0,0,.7.6l5.2.8a.905.905,0,0,1,.6,1.6l-3.8,3.9a1.4,1.4,0,0,0-.3.9l.9,5.4a1,1,0,0,1-1.4,1.1l-4.7-2.6a.75.75,0,0,0-.9,0L6.8,21.9a.965.965,0,0,1-1.4-1.1l.9-5.4a1.008,1.008,0,0,0-.3-.9L2.2,10.6a1.039,1.039,0,0,1,.6-1.7L8,8.1a.858.858,0,0,0,.7-.6l2.3-5A1.085,1.085,0,0,1,12.9,2.6Z" fill="#7adeef"/>
    </g>
    <g id="icons-2" data-name="icons" transform="matrix(0.985, -0.174, 0.174, 0.985, -4466.952, -6003.42)" opacity="0.7">
      <path id="favorite-2" data-name="favorite" d="M20.437,3.022l3.884,8.443A1.785,1.785,0,0,0,25.5,12.479l8.781,1.351a1.529,1.529,0,0,1,1.013,2.7L28.88,23.117a2.357,2.357,0,0,0-.507,1.52l1.52,9.119a1.7,1.7,0,0,1-2.364,1.858l-7.937-4.391a1.266,1.266,0,0,0-1.52,0l-7.937,4.391a1.63,1.63,0,0,1-2.364-1.858l1.52-9.119a1.7,1.7,0,0,0-.507-1.52L2.368,16.532a1.755,1.755,0,0,1,1.013-2.871l8.781-1.351A1.449,1.449,0,0,0,13.345,11.3l3.884-8.443A1.831,1.831,0,0,1,20.437,3.022Z" transform="translate(0 0)" fill="#7adeef"/>
    </g>
    <g id="icons-3" data-name="icons" transform="translate(-4206.956 -6029.786)" opacity="0.7">
      <path id="favorite-3" data-name="favorite" d="M10.674,2.475l1.832,3.983a.842.842,0,0,0,.558.478l4.142.637a.721.721,0,0,1,.478,1.275l-3.027,3.107a1.112,1.112,0,0,0-.239.717l.717,4.3a.8.8,0,0,1-1.115.876l-3.744-2.071a.6.6,0,0,0-.717,0L5.815,17.849A.769.769,0,0,1,4.7,16.973l.717-4.3a.8.8,0,0,0-.239-.717L2.15,8.848a.828.828,0,0,1,.478-1.354L6.77,6.856a.683.683,0,0,0,.558-.478L9.16,2.4A.864.864,0,0,1,10.674,2.475Z" transform="translate(0 0)" fill="#7adeef"/>
    </g>
    <g id="icons-4" data-name="icons" transform="matrix(0.914, 0.407, -0.407, 0.914, -4358.455, -5585.544)" opacity="0.7">
      <path id="favorite-4" data-name="favorite" d="M15.355,2.738l2.816,6.122a1.294,1.294,0,0,0,.857.735l6.366.979a1.109,1.109,0,0,1,.735,1.959l-4.652,4.775a1.709,1.709,0,0,0-.367,1.1l1.1,6.611A1.229,1.229,0,0,1,20.5,26.367l-5.754-3.183a.918.918,0,0,0-1.1,0L7.887,26.367A1.181,1.181,0,0,1,6.173,25.02l1.1-6.611a1.234,1.234,0,0,0-.367-1.1L2.255,12.532a1.272,1.272,0,0,1,.735-2.081l6.366-.979a1.05,1.05,0,0,0,.857-.735l2.816-6.122A1.328,1.328,0,0,1,15.355,2.738Z" transform="translate(0 0)" fill="#7adeef"/>
    </g>
    <g id="icons-5" data-name="icons" transform="matrix(0.985, 0.174, -0.174, 0.985, -3938.899, -6008.708)" opacity="0.7">
      <path id="favorite-5" data-name="favorite" d="M11.68,2.532l2.044,4.443a.939.939,0,0,0,.622.533l4.62.711A.8.8,0,0,1,19.5,9.64l-3.376,3.465a1.24,1.24,0,0,0-.267.8l.8,4.8a.892.892,0,0,1-1.244.977l-4.176-2.31a.666.666,0,0,0-.8,0L6.26,19.68A.857.857,0,0,1,5.016,18.7l.8-4.8a.9.9,0,0,0-.267-.8L2.173,9.64a.923.923,0,0,1,.533-1.51l4.62-.711a.762.762,0,0,0,.622-.533L9.992,2.443A.964.964,0,0,1,11.68,2.532Z" transform="translate(0 0)" fill="#7adeef"/>
    </g>
    <g id="icons-6" data-name="icons" transform="translate(-3966.287 -5865.375)" opacity="0.7">
      <path id="favorite-6" data-name="favorite" d="M5.493,2.2l.743,1.739a.35.35,0,0,0,.226.209l1.681.278a.318.318,0,0,1,.194.556L7.109,6.339a.51.51,0,0,0-.1.313L7.3,8.53c.032.278-.226.522-.453.383l-1.519-.9a.229.229,0,0,0-.291,0l-1.519.9a.319.319,0,0,1-.453-.383L3.36,6.652a.367.367,0,0,0-.1-.313L2.035,4.983a.369.369,0,0,1,.194-.591l1.681-.278A.284.284,0,0,0,4.136,3.9l.743-1.739A.339.339,0,0,1,5.493,2.2Z" transform="translate(0 0)" fill="#7adeef"/>
    </g>
    <g id="icons-7" data-name="icons" transform="translate(-3900.805 -5601.375)" opacity="0.7">
      <path id="favorite-7" data-name="favorite" d="M5.493,2.2l.743,1.739a.35.35,0,0,0,.226.209l1.681.278a.318.318,0,0,1,.194.556L7.109,6.339a.51.51,0,0,0-.1.313L7.3,8.53c.032.278-.226.522-.453.383l-1.519-.9a.229.229,0,0,0-.291,0l-1.519.9a.319.319,0,0,1-.453-.383L3.36,6.652a.367.367,0,0,0-.1-.313L2.035,4.983a.369.369,0,0,1,.194-.591l1.681-.278A.284.284,0,0,0,4.136,3.9l.743-1.739A.339.339,0,0,1,5.493,2.2Z" transform="translate(0 0)" fill="#7adeef"/>
    </g>
    <g id="icons-8" data-name="icons" transform="translate(-3912.734 -5729.489) rotate(-13)" opacity="0.7">
      <path id="favorite-8" data-name="favorite" d="M12.3,2.611,14.478,7.7a1.025,1.025,0,0,0,.662.61l4.917.814a.931.931,0,0,1,.567,1.628l-3.593,3.968a1.491,1.491,0,0,0-.284.916l.851,5.494c.095.814-.662,1.526-1.324,1.119L11.831,19.6a.669.669,0,0,0-.851,0L6.536,22.246a.933.933,0,0,1-1.324-1.119l.851-5.494a1.074,1.074,0,0,0-.284-.916L2.187,10.75a1.081,1.081,0,0,1,.567-1.73l4.917-.814a.83.83,0,0,0,.662-.61l2.175-5.087A.993.993,0,0,1,12.3,2.611Z" transform="translate(0 0)" fill="#7adeef"/>
    </g>
    <g id="icons-9" data-name="icons" transform="matrix(0.839, 0.545, -0.545, 0.839, -4117.808, -5709.615)" opacity="0.7">
      <path id="favorite-9" data-name="favorite" d="M12.3,2.611,14.478,7.7a1.025,1.025,0,0,0,.662.61l4.917.814a.931.931,0,0,1,.567,1.628l-3.593,3.968a1.491,1.491,0,0,0-.284.916l.851,5.494c.095.814-.662,1.526-1.324,1.119L11.831,19.6a.669.669,0,0,0-.851,0L6.536,22.246a.933.933,0,0,1-1.324-1.119l.851-5.494a1.074,1.074,0,0,0-.284-.916L2.187,10.75a1.081,1.081,0,0,1,.567-1.73l4.917-.814a.83.83,0,0,0,.662-.61l2.175-5.087A.993.993,0,0,1,12.3,2.611Z" transform="translate(0 0)" fill="#7adeef"/>
    </g>
    <g id="icons-10" data-name="icons" transform="translate(-4013.663 -5531.389) rotate(-16)" opacity="0.7">
      <path id="favorite-10" data-name="favorite" d="M10.024,2.473l1.7,3.966a.8.8,0,0,0,.516.476l3.833.635a.726.726,0,0,1,.442,1.269l-2.8,3.094a1.163,1.163,0,0,0-.221.714l.663,4.283c.074.635-.516,1.19-1.032.873L9.655,15.72a.522.522,0,0,0-.663,0L5.527,17.782a.727.727,0,0,1-1.032-.873l.663-4.283a.837.837,0,0,0-.221-.714l-2.8-3.094A.842.842,0,0,1,2.578,7.47l3.833-.635a.648.648,0,0,0,.516-.476l1.7-3.966A.774.774,0,0,1,10.024,2.473Z" transform="translate(0 0)" fill="#7adeef"/>
    </g>
    <g id="icons-11" data-name="icons" transform="translate(-4482.014 -5685.872)" opacity="0.7">
      <path id="favorite-11" data-name="favorite" d="M6.452,2.258,7.4,4.468a.445.445,0,0,0,.288.265l2.136.354a.4.4,0,0,1,.246.707L8.506,7.518a.648.648,0,0,0-.123.4l.37,2.387c.041.354-.288.663-.575.486L6.246,9.64a.291.291,0,0,0-.37,0L3.946,10.789a.405.405,0,0,1-.575-.486l.37-2.387a.467.467,0,0,0-.123-.4L2.056,5.794A.469.469,0,0,1,2.3,5.043l2.136-.354a.361.361,0,0,0,.288-.265l.945-2.21A.431.431,0,0,1,6.452,2.258Z" transform="translate(0 0)" fill="#7adeef"/>
    </g>
    <g id="icons-12" data-name="icons" transform="translate(-4487.01 -5475.28) rotate(-11)" opacity="0.7">
      <path id="favorite-12" data-name="favorite" d="M10.024,2.473l1.7,3.966a.8.8,0,0,0,.516.476l3.833.635a.726.726,0,0,1,.442,1.269l-2.8,3.094a1.163,1.163,0,0,0-.221.714l.663,4.283c.074.635-.516,1.19-1.032.873L9.655,15.72a.522.522,0,0,0-.663,0L5.527,17.782a.727.727,0,0,1-1.032-.873l.663-4.283a.837.837,0,0,0-.221-.714l-2.8-3.094A.842.842,0,0,1,2.578,7.47l3.833-.635a.648.648,0,0,0,.516-.476l1.7-3.966A.774.774,0,0,1,10.024,2.473Z" transform="translate(0 0)" fill="#7adeef"/>
    </g>
    <g id="icons-13" data-name="icons" transform="matrix(0.966, 0.259, -0.259, 0.966, -4258.539, -5412.042)" opacity="0.7">
      <path id="favorite-13" data-name="favorite" d="M13.022,2.654l2.326,5.44a1.1,1.1,0,0,0,.708.653l5.258.87a1,1,0,0,1,.607,1.741L18.077,15.6a1.6,1.6,0,0,0-.3.979l.91,5.875c.1.87-.708,1.632-1.416,1.2l-4.752-2.829a.716.716,0,0,0-.91,0L6.854,23.652a1,1,0,0,1-1.416-1.2l.91-5.875a1.148,1.148,0,0,0-.3-.979L2.2,11.358a1.156,1.156,0,0,1,.607-1.85l5.258-.87a.888.888,0,0,0,.708-.653L11.1,2.545A1.061,1.061,0,0,1,13.022,2.654Z" transform="translate(0 0)" fill="#7adeef"/>
    </g>
    <g id="icons-14" data-name="icons" transform="matrix(0.891, -0.454, 0.454, 0.891, -3902.096, -5402.455)" opacity="0.7">
      <path id="favorite-14" data-name="favorite" d="M13.022,2.654l2.326,5.44a1.1,1.1,0,0,0,.708.653l5.258.87a1,1,0,0,1,.607,1.741L18.077,15.6a1.6,1.6,0,0,0-.3.979l.91,5.875c.1.87-.708,1.632-1.416,1.2l-4.752-2.829a.716.716,0,0,0-.91,0L6.854,23.652a1,1,0,0,1-1.416-1.2l.91-5.875a1.148,1.148,0,0,0-.3-.979L2.2,11.358a1.156,1.156,0,0,1,.607-1.85l5.258-.87a.888.888,0,0,0,.708-.653L11.1,2.545A1.061,1.061,0,0,1,13.022,2.654Z" transform="translate(0 0)" fill="#7adeef"/>
    </g>
  </g>
</svg>
