<svg id="Layer_2" data-name="Layer 2" xmlns="http://www.w3.org/2000/svg" width="339.195" height="250.71" viewBox="0 0 339.195 250.71">
  <path id="Path_7376" data-name="Path 7376" d="M134.476,256.705a13.477,13.477,0,0,1-9.33-3.635L6.881,140.275a12.129,12.129,0,0,1,0-17.8L125.146,9.682a13.651,13.651,0,0,1,18.66,0,12.177,12.177,0,0,1,0,17.8L34.739,131.376l109.066,103.9a12.129,12.129,0,0,1,0,17.8A13.477,13.477,0,0,1,134.476,256.705Z" transform="translate(-2.994 -5.996)" fill="#fff"/>
  <path id="Path_7377" data-name="Path 7377" d="M329.076,41.281H16.043a13.141,13.141,0,0,1,0-26.281H329.076a13.141,13.141,0,0,1,0,26.281Z" transform="translate(-2.924 97.24)" fill="#fff"/>
</svg>
