<?xml version="1.0" ?><svg id="Icons" style="enable-background:new 0 0 32 32;" version="1.1" viewBox="0 0 32 32" xml:space="preserve" xmlns="http://www.w3.org/2000/svg" xmlns:xlink="http://www.w3.org/1999/xlink"><style type="text/css">
	.st0{fill:none;stroke:#000000;stroke-width:2;stroke-linecap:round;stroke-linejoin:round;stroke-miterlimit:10;}
</style><g><path d="M10,16c-1.1,0-2-0.9-2-2s0.9-2,2-2s2,0.9,2,2S11.1,16,10,16z M10,14L10,14L10,14z M10,14L10,14L10,14z M10,14L10,14L10,14z    M10,14L10,14L10,14z M10,14L10,14L10,14z M10,14L10,14L10,14z M10,14L10,14L10,14z M10,14L10,14L10,14z"/></g><path d="M31,20h-3v-1c0-1.7-1.3-3-3-3s-3,1.3-3,3v1h-3c-0.6,0-1,0.4-1,1s0.4,1,1,1v7c0,1.7,1.3,3,3,3h6c1.7,0,3-1.3,3-3v-7  c0.6,0,1-0.4,1-1S31.6,20,31,20z M24,27c0,0.6-0.4,1-1,1s-1-0.4-1-1v-2c0-0.6,0.4-1,1-1s1,0.4,1,1V27z M24,19c0-0.6,0.4-1,1-1  s1,0.4,1,1v1h-2V19z M28,27c0,0.6-0.4,1-1,1s-1-0.4-1-1v-2c0-0.6,0.4-1,1-1s1,0.4,1,1V27z"/><path d="M17,24H7c-0.6,0-1-0.4-1-1v-1.4v-2.3V9c0-0.6,0.4-1,1-1h14c0.6,0,1,0.4,1,1v5.5V15c0.8-0.6,1.9-1,3-1c0.3,0,0.7,0,1,0.1V9.5  c1.2-0.7,2-2,2-3.5c0-2.2-1.8-4-4-4c-1.4,0-2.7,0.8-3.5,2H7.5C6.7,2.8,5.4,2,4,2C1.8,2,0,3.8,0,6c0,1.4,0.8,2.7,2,3.5v13.1  c-1.2,0.7-2,2-2,3.5c0,2.2,1.8,4,4,4c1.4,0,2.7-0.8,3.5-2H17V24z"/><path d="M16,21c0-0.7,0.2-1.3,0.6-1.8l-2.7-2L8,20.5V22h8.2C16.1,21.7,16,21.4,16,21z"/></svg>